<svg width="161" height="22" viewBox="0 0 161 22" fill="none" xmlns="http://www.w3.org/2000/svg">
<path d="M14.5149 6.4C14.5615 5.2 14.2055 4.26 13.4468 3.58C12.6948 2.9 11.6399 2.56 10.2823 2.56C9.33726 2.56 8.4721 2.72667 7.68679 3.06C6.90815 3.38667 6.26593 3.83667 5.76014 4.41C5.26101 4.98333 4.95155 5.63667 4.83175 6.37C4.74524 6.91 4.78517 7.38333 4.95155 7.79C5.11792 8.19 5.37415 8.53667 5.72021 8.83C6.06628 9.12333 6.46225 9.37333 6.90815 9.58C7.36069 9.78667 7.8199 9.96 8.28575 10.1L10.3522 10.72C10.9644 10.9 11.5734 11.13 12.179 11.41C12.7846 11.69 13.3237 12.04 13.7962 12.46C14.2687 12.88 14.6181 13.3967 14.8444 14.01C15.0773 14.6233 15.1239 15.3567 14.9841 16.21C14.7978 17.3167 14.3519 18.3067 13.6464 19.18C12.9477 20.0467 12.0293 20.7333 10.8912 21.24C9.7532 21.7467 8.43882 22 6.94808 22C5.55716 22 4.38586 21.77 3.43418 21.31C2.4825 20.8433 1.78039 20.2 1.32784 19.38C0.875295 18.56 0.702262 17.61 0.808744 16.53H2.72541C2.65221 17.3367 2.80195 18.02 3.17463 18.58C3.55397 19.14 4.09304 19.5667 4.79182 19.86C5.49726 20.1467 6.30919 20.29 7.22759 20.29C8.24582 20.29 9.18087 20.12 10.0327 19.78C10.8846 19.4333 11.5867 18.9533 12.1391 18.34C12.6981 17.72 13.0442 17 13.1773 16.18C13.297 15.4867 13.2139 14.9033 12.9277 14.43C12.6482 13.9567 12.2123 13.56 11.62 13.24C11.0343 12.9133 10.3355 12.6267 9.5236 12.38L7.18766 11.66C5.66364 11.1933 4.52895 10.5367 3.78358 9.69C3.04486 8.84333 2.78198 7.76333 2.99495 6.45C3.18129 5.34333 3.63716 4.37333 4.36257 3.54C5.09463 2.7 6.00305 2.04667 7.08783 1.58C8.17262 1.11333 9.34392 0.88 10.6017 0.88C11.8729 0.88 12.9543 1.11667 13.8461 1.59C14.7445 2.06333 15.41 2.71667 15.8426 3.55C16.2819 4.37667 16.4449 5.32667 16.3318 6.4H14.5149Z" fill="black"/>
<path d="M24.2281 21.97C22.8837 21.97 21.7524 21.63 20.834 20.95C19.9155 20.2633 19.2667 19.3133 18.8873 18.1C18.508 16.8867 18.4448 15.4867 18.6977 13.9C18.9506 12.3533 19.453 10.9933 20.205 9.82C20.9637 8.64 21.8954 7.72333 23.0002 7.07C24.1049 6.41 25.3062 6.08 26.6039 6.08C27.9549 6.08 29.0863 6.42333 29.998 7.11C30.9164 7.79667 31.5653 8.74667 31.9446 9.96C32.3306 11.1733 32.3972 12.5767 32.1443 14.17C31.8914 15.71 31.3856 17.0667 30.6269 18.24C29.8683 19.4067 28.9365 20.32 27.8318 20.98C26.7337 21.64 25.5325 21.97 24.2281 21.97ZM24.248 20.34C25.3395 20.34 26.3111 20.05 27.163 19.47C28.0215 18.8833 28.7302 18.1033 29.2893 17.13C29.8483 16.15 30.2243 15.0733 30.4173 13.9C30.597 12.78 30.577 11.75 30.3574 10.81C30.1378 9.87 29.7152 9.11667 29.0896 8.55C28.464 7.98333 27.6321 7.7 26.5939 7.7C25.5092 7.7 24.5375 7.99667 23.679 8.59C22.8205 9.17667 22.1117 9.96333 21.5527 10.95C20.9937 11.93 20.621 13.0033 20.4346 14.17C20.2483 15.2967 20.2616 16.3267 20.4746 17.26C20.6942 18.1933 21.1168 18.94 21.7424 19.5C22.3746 20.06 23.2098 20.34 24.248 20.34Z" fill="black"/>
<path d="M40.7568 21.97C39.3726 21.97 38.2312 21.6267 37.3328 20.94C36.4343 20.2533 35.8054 19.3133 35.4461 18.12C35.0933 16.92 35.0434 15.56 35.2963 14.04C35.5492 12.4933 36.0583 11.1233 36.8237 9.93C37.589 8.73 38.534 7.79 39.6587 7.11C40.7901 6.42333 42.0246 6.08 43.3623 6.08C44.3939 6.08 45.2923 6.28 46.0576 6.68C46.823 7.07333 47.4153 7.63 47.8345 8.35C48.2538 9.06333 48.4535 9.89667 48.4335 10.85H46.6366C46.59 9.96333 46.2673 9.21667 45.6683 8.61C45.076 8.00333 44.2375 7.7 43.1527 7.7C42.1611 7.7 41.2427 7.96667 40.3975 8.5C39.5523 9.02667 38.8368 9.76333 38.2512 10.71C37.6722 11.65 37.2829 12.74 37.0832 13.98C36.8703 15.2267 36.8902 16.33 37.1431 17.29C37.396 18.2433 37.8486 18.99 38.5008 19.53C39.1596 20.07 39.9915 20.34 40.9964 20.34C41.6819 20.34 42.3274 20.2133 42.9331 19.96C43.5387 19.7 44.0744 19.3333 44.5403 18.86C45.0061 18.38 45.3622 17.8167 45.6084 17.17H47.4053C47.1058 18.1033 46.6333 18.93 45.9878 19.65C45.3489 20.37 44.5835 20.9367 43.6917 21.35C42.8 21.7633 41.8217 21.97 40.7568 21.97Z" fill="black"/>
<path d="M50.475 21.65L53.0305 6.29H54.8174L52.2619 21.65H50.475ZM54.5678 3.62C54.1952 3.62 53.879 3.49333 53.6195 3.24C53.3666 2.98667 53.2435 2.68 53.2501 2.32C53.2634 1.98 53.3999 1.68667 53.6594 1.44C53.9256 1.18667 54.2384 1.06 54.5978 1.06C54.9705 1.06 55.2866 1.19 55.5461 1.45C55.8057 1.70333 55.9288 2.01 55.9155 2.37C55.9088 2.71 55.7724 3.00333 55.5062 3.25C55.24 3.49667 54.9272 3.62 54.5678 3.62Z" fill="black"/>
<path d="M61.2038 22C60.2788 22 59.4635 21.82 58.7581 21.46C58.0526 21.0933 57.5269 20.5667 57.1808 19.88C56.8414 19.1867 56.7482 18.3467 56.9013 17.36C57.0344 16.6 57.2873 15.96 57.66 15.44C58.0393 14.92 58.5185 14.4933 59.0975 14.16C59.6765 13.82 60.342 13.5533 61.094 13.36C61.846 13.1667 62.6646 13.02 63.5497 12.92C64.4149 12.8133 65.1536 12.72 65.7659 12.64C66.3782 12.56 66.854 12.4333 67.1934 12.26C67.5328 12.0867 67.7358 11.8067 67.8023 11.42L67.8622 11.06C68.0353 10.0133 67.8756 9.19 67.3831 8.59C66.8906 7.98333 66.0654 7.68 64.9074 7.68C63.8026 7.68 62.8443 7.92667 62.0324 8.42C61.2271 8.90667 60.6281 9.47667 60.2355 10.13L58.6582 9.52C59.1374 8.68 59.7264 8.01 60.4252 7.51C61.1239 7.00333 61.8727 6.64 62.6713 6.42C63.4699 6.19333 64.2585 6.08 65.0371 6.08C65.6228 6.08 66.2184 6.15667 66.824 6.31C67.4297 6.46333 67.9721 6.73 68.4512 7.11C68.937 7.48333 69.2931 8.00667 69.5194 8.68C69.7523 9.34667 69.7856 10.1933 69.6192 11.22L67.8822 21.65H66.1053L66.5146 19.22H66.4048C66.1253 19.6733 65.7393 20.1133 65.2468 20.54C64.761 20.9667 64.1786 21.3167 63.4998 21.59C62.821 21.8633 62.0557 22 61.2038 22ZM61.653 20.37C62.5981 20.37 63.4532 20.16 64.2186 19.74C64.9906 19.32 65.6228 18.7633 66.1153 18.07C66.6144 17.37 66.9339 16.6 67.0736 15.76L67.443 13.54C67.2966 13.6667 67.057 13.78 66.7242 13.88C66.3981 13.98 66.0288 14.07 65.6161 14.15C65.2102 14.2233 64.8009 14.2867 64.3883 14.34C63.9823 14.3933 63.6229 14.44 63.3102 14.48C62.425 14.5867 61.653 14.7533 60.9942 14.98C60.342 15.2067 59.8196 15.52 59.4269 15.92C59.0342 16.3133 58.788 16.82 58.6882 17.44C58.5351 18.3733 58.7381 19.0967 59.2971 19.61C59.8628 20.1167 60.6481 20.37 61.653 20.37Z" fill="black"/>
<path d="M77.78 1.17L74.3859 21.65H72.609L76.0031 1.17H77.78Z" fill="black"/>
<path d="M79.7965 1.17H85.1272L90.7575 14.93H90.997L96.6273 1.17H101.958V21.65H97.7653V8.32H97.5956L92.3048 21.55H89.4497L84.1589 8.27H83.9892V21.65H79.7965V1.17Z" fill="black"/>
<path d="M112.427 21.95C110.85 21.95 109.492 21.63 108.354 20.99C107.223 20.3433 106.351 19.43 105.739 18.25C105.127 17.0633 104.821 15.66 104.821 14.04C104.821 12.46 105.127 11.0733 105.739 9.88C106.351 8.68667 107.213 7.75667 108.324 7.09C109.443 6.42333 110.754 6.09 112.258 6.09C113.269 6.09 114.211 6.25333 115.083 6.58C115.961 6.9 116.727 7.38333 117.379 8.03C118.038 8.67667 118.55 9.49 118.916 10.47C119.282 11.4433 119.465 12.5833 119.465 13.89V15.06H106.518V12.42H115.462C115.462 11.8067 115.329 11.2633 115.063 10.79C114.797 10.3167 114.427 9.94667 113.955 9.68C113.489 9.40667 112.946 9.27 112.327 9.27C111.682 9.27 111.11 9.42 110.61 9.72C110.118 10.0133 109.732 10.41 109.452 10.91C109.173 11.4033 109.03 11.9533 109.023 12.56V15.07C109.023 15.83 109.163 16.4867 109.443 17.04C109.729 17.5933 110.131 18.02 110.65 18.32C111.17 18.62 111.785 18.77 112.497 18.77C112.97 18.77 113.402 18.7033 113.795 18.57C114.188 18.4367 114.524 18.2367 114.803 17.97C115.083 17.7033 115.296 17.3767 115.442 16.99L119.375 17.25C119.176 18.1967 118.766 19.0233 118.147 19.73C117.535 20.43 116.743 20.9767 115.772 21.37C114.807 21.7567 113.692 21.95 112.427 21.95Z" fill="black"/>
<path d="M127.89 21.9C126.726 21.9 125.671 21.6 124.726 21C123.788 20.3933 123.042 19.5033 122.49 18.33C121.944 17.15 121.671 15.7033 121.671 13.99C121.671 12.23 121.954 10.7667 122.52 9.6C123.085 8.42667 123.837 7.55 124.776 6.97C125.721 6.38333 126.756 6.09 127.88 6.09C128.739 6.09 129.454 6.23667 130.027 6.53C130.606 6.81667 131.072 7.17667 131.424 7.61C131.784 8.03667 132.057 8.45667 132.243 8.87H132.373V1.17H136.615V21.65H132.423V19.19H132.243C132.043 19.6167 131.76 20.04 131.394 20.46C131.035 20.8733 130.566 21.2167 129.987 21.49C129.414 21.7633 128.716 21.9 127.89 21.9ZM129.238 18.51C129.924 18.51 130.503 18.3233 130.975 17.95C131.454 17.57 131.82 17.04 132.073 16.36C132.333 15.68 132.463 14.8833 132.463 13.97C132.463 13.0567 132.336 12.2633 132.083 11.59C131.83 10.9167 131.464 10.3967 130.985 10.03C130.506 9.66333 129.924 9.48 129.238 9.48C128.539 9.48 127.95 9.67 127.471 10.05C126.992 10.43 126.629 10.9567 126.383 11.63C126.137 12.3033 126.014 13.0833 126.014 13.97C126.014 14.8633 126.137 15.6533 126.383 16.34C126.636 17.02 126.999 17.5533 127.471 17.94C127.95 18.32 128.539 18.51 129.238 18.51Z" fill="black"/>
<path d="M140.112 21.65V6.29H144.364V21.65H140.112ZM142.248 4.31C141.616 4.31 141.073 4.1 140.621 3.68C140.175 3.25333 139.952 2.74333 139.952 2.15C139.952 1.56333 140.175 1.06 140.621 0.640001C141.073 0.213334 141.616 0 142.248 0C142.88 0 143.419 0.213334 143.865 0.640001C144.318 1.06 144.544 1.56333 144.544 2.15C144.544 2.74333 144.318 3.25333 143.865 3.68C143.419 4.1 142.88 4.31 142.248 4.31Z" fill="black"/>
<path d="M152.143 21.94C151.165 21.94 150.293 21.77 149.528 21.43C148.763 21.0833 148.157 20.5733 147.711 19.9C147.272 19.22 147.052 18.3733 147.052 17.36C147.052 16.5067 147.209 15.79 147.521 15.21C147.834 14.63 148.26 14.1633 148.799 13.81C149.338 13.4567 149.95 13.19 150.636 13.01C151.328 12.83 152.053 12.7033 152.812 12.63C153.704 12.5367 154.423 12.45 154.968 12.37C155.514 12.2833 155.91 12.1567 156.156 11.99C156.403 11.8233 156.526 11.5767 156.526 11.25V11.19C156.526 10.5567 156.326 10.0667 155.927 9.72C155.534 9.37333 154.975 9.2 154.25 9.2C153.484 9.2 152.875 9.37 152.423 9.71C151.97 10.0433 151.671 10.4633 151.524 10.97L147.591 10.65C147.791 9.71667 148.184 8.91 148.769 8.23C149.355 7.54333 150.11 7.01667 151.035 6.65C151.967 6.27667 153.045 6.09 154.27 6.09C155.121 6.09 155.937 6.19 156.715 6.39C157.501 6.59 158.196 6.9 158.802 7.32C159.414 7.74 159.897 8.28 160.249 8.94C160.602 9.59333 160.778 10.3767 160.778 11.29V21.65H156.745V19.52H156.626C156.379 20 156.05 20.4233 155.637 20.79C155.225 21.15 154.729 21.4333 154.15 21.64C153.571 21.84 152.902 21.94 152.143 21.94ZM153.361 19C153.987 19 154.539 18.8767 155.018 18.63C155.497 18.3767 155.874 18.0367 156.146 17.61C156.419 17.1833 156.556 16.7 156.556 16.16V14.53C156.423 14.6167 156.24 14.6967 156.007 14.77C155.78 14.8367 155.524 14.9 155.238 14.96C154.952 15.0133 154.666 15.0633 154.379 15.11C154.093 15.15 153.834 15.1867 153.601 15.22C153.102 15.2933 152.666 15.41 152.293 15.57C151.92 15.73 151.631 15.9467 151.425 16.22C151.218 16.4867 151.115 16.82 151.115 17.22C151.115 17.8 151.325 18.2433 151.744 18.55C152.17 18.85 152.709 19 153.361 19Z" fill="black"/>
</svg>
